<?xml version="1.0" encoding="UTF-8"?>
<svg id="Layer_1" data-name="Layer 1" xmlns="http://www.w3.org/2000/svg" version="1.1" viewBox="0 0 32 32">
  <defs>
    <style>
      .cls-1 {
        fill: #004e98;
      }

      .cls-1, .cls-2, .cls-3, .cls-4 {
        stroke-width: 0px;
      }

      .cls-2 {
        fill: #d7263d;
      }

      .cls-3 {
        fill: #fff;
      }

      .cls-4 {
        fill: #0a0a0a;
      }
    </style>
  </defs>
  <rect class="cls-3" x="-1550.52" y="-1921.88" width="542.3" height="542.3"/>
  <g>
    <path class="cls-4" d="M-350.59-992.53v93.52c0,6.07,4.94,10.99,11.03,10.99h29.37c6.09,0,11.03-4.92,11.03-10.99v-93.52c0-6.07-4.94-10.99-11.03-10.99h-29.37c-6.09,0-11.03,4.92-11.03,10.99Z"/>
    <path class="cls-4" d="M-350.59-1059.62v28.05c0,6.07,4.94,10.99,11.03,10.99h29.37c6.09,0,11.03-4.92,11.03-10.99v-28.05c0-6.07-4.94-10.99-11.03-10.99h-29.37c-6.09,0-11.03,4.92-11.03,10.99Z"/>
    <path class="cls-4" d="M-378.66-1070.57h-63.3c-4.87,0-9.21,3.1-10.76,7.7l-36.89,108.95c-.26.76-.97,1.27-1.78,1.27h-5.07c-1.07,0-1.92-.88-1.87-1.94l1.87-45.45.43-59.17c.05-6.28-5.05-11.4-11.36-11.4h-28.62c-6.27,0-11.36,5.07-11.36,11.31v159.91c0,6.25,5.09,11.31,11.36,11.31h53.51c4.72,0,8.95-2.91,10.62-7.31l41.55-109.41c.28-.73.97-1.21,1.75-1.21h10.35c1.07,0,1.92.88,1.87,1.94l-1.87,45.45-.43,59.17c-.05,6.28,5.05,11.4,11.36,11.4h28.62c6.27,0,11.36-5.07,11.36-11.31v-159.91c0-6.25-5.09-11.31-11.36-11.31Z"/>
  </g>
  <g>
    <path class="cls-4" d="M-412.9-653.05v63.9c0,4.15,3.37,7.51,7.54,7.51h20.07c4.16,0,7.54-3.36,7.54-7.51v-63.9c0-4.15-3.37-7.51-7.54-7.51h-20.07c-4.16,0-7.54,3.36-7.54,7.51Z"/>
    <path class="cls-4" d="M-412.9-698.89v19.17c0,4.15,3.37,7.51,7.54,7.51h20.07c4.16,0,7.54-3.36,7.54-7.51v-19.17c0-4.15-3.37-7.51-7.54-7.51h-20.07c-4.16,0-7.54,3.36-7.54,7.51Z"/>
    <path class="cls-4" d="M-432.09-706.37h-43.25c-3.33,0-6.29,2.12-7.35,5.26l-25.21,74.45c-.18.52-.66.87-1.21.87h-3.46c-.73,0-1.31-.6-1.28-1.33l1.28-31.06.29-40.43c.03-4.29-3.45-7.79-7.76-7.79h-19.56c-4.29,0-7.76,3.46-7.76,7.73v109.27c0,4.27,3.47,7.73,7.76,7.73h36.56c3.23,0,6.12-1.99,7.26-5l28.39-74.76c.19-.5.67-.82,1.2-.82h7.08c.73,0,1.31.6,1.28,1.33l-1.28,31.06-.29,40.43c-.03,4.29,3.45,7.79,7.76,7.79h19.56c4.29,0,7.76-3.46,7.76-7.73v-109.27c0-4.27-3.47-7.73-7.76-7.73Z"/>
  </g>
  <g>
    <path class="cls-2" d="M-314.89-345.63v110.48c0,7.17,5.83,12.98,13.03,12.98h34.7c7.2,0,13.03-5.81,13.03-12.98v-110.48c0-7.17-5.83-12.98-13.03-12.98h-34.7c-7.2,0-13.03,5.81-13.03,12.98Z"/>
    <path class="cls-2" d="M-314.89-424.89v33.14c0,7.17,5.83,12.98,13.03,12.98h34.7c7.2,0,13.03-5.81,13.03-12.98v-33.14c0-7.17-5.83-12.98-13.03-12.98h-34.7c-7.2,0-13.03,5.81-13.03,12.98Z"/>
    <path class="cls-2" d="M-348.06-437.82h-74.78c-5.76,0-10.88,3.66-12.72,9.1l-43.58,128.72c-.3.9-1.15,1.5-2.1,1.5h-5.99c-1.26,0-2.27-1.04-2.21-2.3l2.21-53.7.51-69.9c.05-7.42-5.97-13.46-13.42-13.46h-33.81c-7.41,0-13.42,5.98-13.42,13.37v188.92c0,7.38,6.01,13.37,13.42,13.37h63.21c5.58,0,10.58-3.44,12.55-8.64l49.09-129.25c.33-.86,1.15-1.43,2.07-1.43h12.23c1.26,0,2.27,1.04,2.21,2.3l-2.21,53.7-.51,69.9c-.05,7.42,5.97,13.46,13.42,13.46h33.81c7.41,0,13.42-5.98,13.42-13.37v-188.92c0-7.38-6.01-13.37-13.42-13.37Z"/>
  </g>
  <g>
    <path class="cls-2" d="M-314.89,3.65v110.48c0,7.17,5.83,12.98,13.03,12.98h34.7c7.2,0,13.03-5.81,13.03-12.98V3.65c0-7.17-5.83-12.98-13.03-12.98h-34.7c-7.2,0-13.03,5.81-13.03,12.98Z"/>
    <path class="cls-2" d="M-314.89-75.61v33.14c0,7.17,5.83,12.98,13.03,12.98h34.7c7.2,0,13.03-5.81,13.03-12.98v-33.14c0-7.17-5.83-12.98-13.03-12.98h-34.7c-7.2,0-13.03,5.81-13.03,12.98Z"/>
    <path class="cls-2" d="M-348.06-88.55h-74.78c-5.76,0-10.88,3.66-12.72,9.1l-43.58,128.72c-.3.9-1.15,1.5-2.1,1.5h-5.99c-1.26,0-2.27-1.04-2.21-2.3l2.21-53.7.51-69.9c.05-7.42-5.97-13.46-13.42-13.46h-33.81c-7.41,0-13.42,5.98-13.42,13.37V113.7c0,7.38,6.01,13.37,13.42,13.37h63.21c5.58,0,10.58-3.44,12.55-8.64L-409.09-10.82c.33-.86,1.15-1.43,2.07-1.43h12.23c1.26,0,2.27,1.04,2.21,2.3l-2.21,53.7-.51,69.9c-.05,7.42,5.97,13.46,13.42,13.46h33.81c7.41,0,13.42-5.98,13.42-13.37V-75.18c0-7.38-6.01-13.37-13.42-13.37Z"/>
  </g>
  <g>
    <path class="cls-2" d="M-35.73,17.23v14.34c0,.93.76,1.68,1.69,1.68h4.5c.93,0,1.69-.75,1.69-1.68v-14.34c0-.93-.76-1.68-1.69-1.68h-4.5c-.93,0-1.69.75-1.69,1.68Z"/>
    <path class="cls-2" d="M-35.73,6.95v4.3c0,.93.76,1.68,1.69,1.68h4.5c.93,0,1.69-.75,1.69-1.68v-4.3c0-.93-.76-1.68-1.69-1.68h-4.5c-.93,0-1.69.75-1.69,1.68Z"/>
    <path class="cls-2" d="M-40.04,5.27h-9.71c-.75,0-1.41.48-1.65,1.18l-5.66,16.71c-.04.12-.15.19-.27.19h-.78c-.16,0-.29-.14-.29-.3l.29-6.97.07-9.07c0-.96-.77-1.75-1.74-1.75h-4.39c-.96,0-1.74.78-1.74,1.74v24.52c0,.96.78,1.74,1.74,1.74h8.21c.72,0,1.37-.45,1.63-1.12l6.37-16.78c.04-.11.15-.19.27-.19h1.59c.16,0,.29.14.29.3l-.29,6.97-.07,9.07c0,.96.77,1.75,1.74,1.75h4.39c.96,0,1.74-.78,1.74-1.74V7c0-.96-.78-1.74-1.74-1.74Z"/>
  </g>
  <path class="cls-2" d="M29.98,0h-11.25c-.87,0-1.64.54-1.91,1.35l-6.56,19.1c-.05.13-.17.22-.32.22h-.9c-.19,0-.34-.15-.33-.34l.33-7.97.08-10.37c0-1.1-.9-2-2.02-2H2.02C.9,0,0,.89,0,1.98v28.03c0,1.1.9,1.98,2.02,1.98h9.51c.84,0,1.59-.51,1.89-1.28l7.38-19.18c.05-.13.17-.21.31-.21h1.84c.19,0,.34.15.33.34l-.33,7.97-.08,10.37c0,1.1.9,2,2.02,2h5.09c1.11,0,2.02-.89,2.02-1.98V1.99C32,.89,31.1,0,29.98,0Z"/>
  <g>
    <path class="cls-4" d="M-547.36-832.45v-40.01c0-1.54,1.25-2.78,2.78-2.78h9.42c.88,0,1.71.42,2.24,1.13l11.82,15.95,6.67,10.48h.88l-.61-9.93v-14.84c0-1.54,1.25-2.78,2.78-2.78h7.22c1.54,0,2.78,1.25,2.78,2.78v40.01c0,1.54-1.25,2.78-2.78,2.78h-9.45c-.87,0-1.68-.4-2.21-1.09l-12.63-16.46-5.78-8.98h-.88l.54,8.71v15.04c0,1.54-1.25,2.78-2.78,2.78h-7.22c-1.54,0-2.78-1.25-2.78-2.78Z"/>
    <rect class="cls-4" x="-497.89" y="-875.24" width="12.79" height="45.58" rx="-392.05" ry="-392.05"/>
    <path class="cls-4" d="M-343.81-833.07v-38.77c0-1.51,1.23-2.74,2.74-2.74h9.09c.87,0,1.69.41,2.2,1.11l11.46,15.47,6.47,10.17h.86l-.59-9.64v-14.36c0-1.51,1.23-2.74,2.74-2.74h6.93c1.51,0,2.74,1.23,2.74,2.74v38.77c0,1.51-1.23,2.74-2.74,2.74h-9.12c-.85,0-1.66-.4-2.18-1.07l-12.25-15.97-5.61-8.72h-.86l.53,8.45v14.56c0,1.51-1.23,2.74-2.74,2.74h-6.93c-1.51,0-2.74-1.23-2.74-2.74Z"/>
    <path class="cls-4" d="M-451.45-842.18c-.85,0-1.7-.01-2.55-.02-2.23-.02-4.46-.03-6.69-.05-1.14,0-2.35.09-3.45-.28-.94-.31-1.77-.94-2.38-1.72-1.81-2.29-1.89-5.43-1.89-8.21,0-2.62.22-3.86.76-5.1.19-.45-.12-.94-.61-.94h-.87s-11.54,0-11.54,0h0c-.52,0-.95.42-.95.95v25.12c0,1.51,1.23,2.74,2.74,2.74h20.33c.45.02.91.02,1.37.02s.95,0,1.42-.02h10.76c.86,0,1.67-.4,2.19-1.09l5.29-7c1.36-1.81.08-4.4-2.19-4.4h-11.73Z"/>
    <g>
      <path class="cls-4" d="M-423.11-862.75h25.92c2.24,0,3.54-2.54,2.22-4.35l-5.08-7c-.52-.71-1.34-1.13-2.22-1.13h-12.95s-.03,0-.04,0c-.03,0-.05,0-.07,0h-.31c-13.08.12-18.38,6.15-19.26,12.49h11.81Z"/>
      <path class="cls-4" d="M-405.6-856.81c-11.83-2.09-16.41-1.68-16.41-1.68,0,0,0,0,0,0,0,0,0,0,0,0h-11.7c-.71,0-1.27.63-1.16,1.34.87,5.57,4.96,8.07,12.24,9.06l13.87,1.85c3.62.46,4.49,1.12,4.49,2.69,0,.77-.61,1.4-1.38,1.4h-19.47s-2.95,0-2.95,0h-4.09c-2.27,0-3.56,2.6-2.18,4.4l5.38,7.01c.52.68,1.32,1.07,2.17,1.07h13.38c.19,0,.47,0,.81,0,5.38,0,8.97,0,12.31-1.52,4.52-2.07,6.61-6.04,6.91-6.62,1.47-2.89,1.52-5.51,1.52-6.19,0-5.68-2.91-11.23-13.74-12.81Z"/>
    </g>
    <path class="cls-4" d="M-443.22-874.17c-.52-.67-1.32-1.07-2.17-1.07h-33.49c-1.51,0-2.74,1.23-2.74,2.74v7.71c0,1.13.91,2.04,2.04,2.04h39.57c2.27,0,3.56-2.61,2.17-4.41l-5.38-7.01Z"/>
    <path class="cls-4" d="M-359.51-849.68h-10.89c-.59,0-1-.6-.78-1.15l4.69-11.84c.16-.41.56-.68,1-.68h4.89c.61,0,1.1.49,1.1,1.1v7.65c0,.37.3.67.67.67h8.99c1.51,0,2.74-1.23,2.74-2.74v-15.16c0-1.51-1.23-2.74-2.74-2.74h-22.96c-1.09,0-2.08.65-2.52,1.66l-16.72,38.77c-.78,1.81.55,3.83,2.52,3.83h9.77l3.43-8.19h16.82l-.03,5.43c0,1.52,1.22,2.76,2.74,2.76h6.94c1.51,0,2.74-1.23,2.74-2.74v-13.87c0-1.51-1.23-2.74-2.74-2.74h-9.66Z"/>
  </g>
  <g>
    <path class="cls-4" d="M10.65-590.97v-106.11c0-4.15,3.36-7.51,7.51-7.51h24.87c2.38,0,4.62,1.13,6.03,3.04l31.37,42.34,17.72,27.84h2.35l-1.63-26.39v-39.31c0-4.15,3.36-7.51,7.51-7.51h18.97c4.15,0,7.51,3.36,7.51,7.51v106.11c0,4.15-3.36,7.51-7.51,7.51h-24.95c-2.33,0-4.53-1.09-5.95-2.94l-33.54-43.7-15.37-23.86h-2.35l1.45,23.14v39.86c0,4.15-3.36,7.51-7.51,7.51h-18.97c-4.15,0-7.51-3.36-7.51-7.51Z"/>
    <path class="cls-4" d="M-283.96-615.91c-2.33-.02-4.65-.03-6.98-.05-6.1-.04-12.21-.08-18.31-.13-3.12-.02-6.43.24-9.43-.76-2.58-.86-4.83-2.58-6.51-4.7-4.94-6.26-5.18-14.87-5.18-22.48,0-7.16.6-10.55,2.08-13.95.53-1.22-.34-2.58-1.67-2.58h-2.39s-31.59,0-31.59,0h0c-1.43,0-2.59,1.16-2.59,2.59v68.74c0,4.15,3.36,7.51,7.51,7.51h55.64c1.23.04,2.48.07,3.74.07s2.6-.03,3.87-.07h29.46c2.35,0,4.57-1.1,5.99-2.98l14.47-19.17c3.73-4.95.21-12.03-5.99-12.03h-32.12Z"/>
    <g>
      <path class="cls-4" d="M-206.39-672.22h70.93c6.13,0,9.68-6.95,6.07-11.92l-13.91-19.16c-1.41-1.95-3.67-3.1-6.07-3.1h-35.44s-.07,0-.11,0c-.07,0-.14,0-.2,0h-.86c-35.79.33-50.31,16.82-52.72,34.18h32.31Z"/>
      <path class="cls-4" d="M-158.47-655.96c-32.38-5.71-44.92-4.59-44.93-4.59,0,0,0,0-.01,0,0,0-.01,0-.02,0h-32.02c-1.95,0-3.47,1.73-3.17,3.66,2.37,15.24,13.58,22.1,33.5,24.81l37.96,5.06c9.91,1.26,12.28,3.06,12.29,7.37,0,2.1-1.68,3.82-3.78,3.82h-53.28s-8.06,0-8.06,0h-11.19c-6.21,0-9.73,7.11-5.98,12.05l14.73,19.18c1.42,1.85,3.62,2.93,5.95,2.93h36.62c.51,0,1.28.02,2.21.02,14.74.01,24.56.02,33.69-4.15,12.38-5.65,18.1-16.53,18.92-18.13,4.03-7.91,4.15-15.07,4.15-16.95,0-15.55-7.95-30.73-37.6-35.07Z"/>
    </g>
    <path class="cls-4" d="M-261.43-703.47c-1.42-1.84-3.62-2.92-5.94-2.92h-91.65c-4.15,0-7.51,3.36-7.51,7.51v21.09c0,3.08,2.5,5.58,5.58,5.58h108.3c6.22,0,9.74-7.15,5.95-12.08l-14.73-19.17Z"/>
    <path class="cls-4" d="M-32.33-636.43h-29.82c-1.63,0-2.74-1.64-2.14-3.16l12.84-32.41c.44-1.12,1.53-1.86,2.74-1.86h13.39c1.66,0,3,1.34,3,3v20.93c0,1.01.82,1.83,1.83,1.83H-5.89c4.15,0,7.51-3.36,7.51-7.51v-41.48c0-4.15-3.36-7.51-7.51-7.51h-62.84c-3,0-5.71,1.78-6.89,4.53l-45.77,106.11c-2.14,4.96,1.5,10.48,6.89,10.48h26.73l9.4-22.42h46.04l-.07,14.87c-.02,4.16,3.35,7.54,7.51,7.54H-5.89c4.15,0,7.51-3.36,7.51-7.51v-37.95c0-4.15-3.36-7.51-7.51-7.51h-26.44Z"/>
  </g>
  <g>
    <g>
      <path class="cls-2" d="M986.5-634.66v63.9c0,4.15,3.37,7.51,7.54,7.51h20.07c4.16,0,7.54-3.36,7.54-7.51v-63.9c0-4.15-3.37-7.51-7.54-7.51h-20.07c-4.16,0-7.54,3.36-7.54,7.51Z"/>
      <path class="cls-2" d="M986.5-680.5v19.17c0,4.15,3.37,7.51,7.54,7.51h20.07c4.16,0,7.54-3.36,7.54-7.51v-19.17c0-4.15-3.37-7.51-7.54-7.51h-20.07c-4.16,0-7.54,3.36-7.54,7.51Z"/>
      <path class="cls-2" d="M967.32-687.99h-43.25c-3.33,0-6.29,2.12-7.35,5.26l-25.21,74.45c-.18.52-.66.87-1.21.87h-3.46c-.73,0-1.31-.6-1.28-1.33l1.28-31.06.29-40.43c.03-4.29-3.45-7.79-7.76-7.79h-19.56c-4.29,0-7.76,3.46-7.76,7.73v109.27c0,4.27,3.47,7.73,7.76,7.73h36.56c3.23,0,6.12-1.99,7.26-5l28.39-74.76c.19-.5.67-.82,1.2-.82h7.08c.73,0,1.31.6,1.28,1.33l-1.28,31.06-.29,40.43c-.03,4.29,3.45,7.79,7.76,7.79h19.56c4.29,0,7.76-3.46,7.76-7.73v-109.27c0-4.27-3.47-7.73-7.76-7.73Z"/>
    </g>
    <g>
      <path class="cls-2" d="M1410.05-572.59v-106.11c0-4.15,3.36-7.51,7.51-7.51h24.87c2.38,0,4.62,1.13,6.03,3.04l31.37,42.34,17.72,27.84h2.35l-1.63-26.39v-39.31c0-4.15,3.36-7.51,7.51-7.51h18.97c4.15,0,7.51,3.36,7.51,7.51v106.11c0,4.15-3.36,7.51-7.51,7.51h-24.95c-2.33,0-4.53-1.09-5.95-2.94l-33.54-43.7-15.37-23.86h-2.35l1.45,23.14v39.86c0,4.15-3.36,7.51-7.51,7.51h-18.97c-4.15,0-7.51-3.36-7.51-7.51Z"/>
      <path class="cls-2" d="M1115.45-597.52c-2.33-.02-4.65-.03-6.98-.05-6.1-.04-12.21-.08-18.31-.13-3.12-.02-6.43.24-9.43-.76-2.58-.86-4.83-2.58-6.51-4.7-4.94-6.26-5.18-14.87-5.18-22.48,0-7.16.6-10.55,2.08-13.95.53-1.22-.34-2.58-1.67-2.58h-2.39s-31.59,0-31.59,0h0c-1.43,0-2.59,1.16-2.59,2.59v68.74c0,4.15,3.36,7.51,7.51,7.51h55.64c1.23.04,2.48.07,3.74.07s2.6-.03,3.87-.07h29.46c2.35,0,4.57-1.1,5.99-2.98l14.47-19.17c3.73-4.95.21-12.03-5.99-12.03h-32.12Z"/>
      <g>
        <path class="cls-2" d="M1193.02-653.83h70.93c6.13,0,9.68-6.95,6.07-11.92l-13.91-19.16c-1.41-1.95-3.67-3.1-6.07-3.1h-35.44s-.07,0-.11,0c-.07,0-.14,0-.2,0h-.86c-35.79.33-50.31,16.82-52.72,34.18h32.31Z"/>
        <path class="cls-2" d="M1240.93-637.58c-32.38-5.71-44.92-4.59-44.93-4.59,0,0,0,0-.01,0,0,0-.01,0-.02,0h-32.02c-1.95,0-3.47,1.73-3.17,3.66,2.37,15.24,13.58,22.1,33.5,24.81l37.96,5.06c9.91,1.26,12.28,3.06,12.29,7.37,0,2.1-1.68,3.82-3.78,3.82h-53.28s-8.06,0-8.06,0h-11.19c-6.21,0-9.73,7.11-5.98,12.05l14.73,19.18c1.42,1.85,3.62,2.93,5.95,2.93h36.62c.51,0,1.28.02,2.21.02,14.74.01,24.56.02,33.69-4.15,12.38-5.65,18.1-16.53,18.92-18.13,4.03-7.91,4.15-15.07,4.15-16.95,0-15.55-7.95-30.73-37.6-35.07Z"/>
      </g>
      <path class="cls-2" d="M1137.98-685.09c-1.42-1.84-3.62-2.92-5.94-2.92h-91.65c-4.15,0-7.51,3.36-7.51,7.51v21.09c0,3.08,2.5,5.58,5.58,5.58h108.3c6.22,0,9.74-7.15,5.95-12.08l-14.73-19.17Z"/>
      <path class="cls-2" d="M1367.07-618.05h-29.82c-1.63,0-2.74-1.64-2.14-3.16l12.84-32.41c.44-1.12,1.53-1.86,2.74-1.86h13.39c1.66,0,3,1.34,3,3v20.93c0,1.01.82,1.83,1.83,1.83h24.61c4.15,0,7.51-3.36,7.51-7.51v-41.48c0-4.15-3.36-7.51-7.51-7.51h-62.84c-3,0-5.71,1.78-6.89,4.53l-45.77,106.11c-2.14,4.96,1.5,10.48,6.89,10.48h26.73l9.4-22.42h46.04l-.07,14.87c-.02,4.16,3.35,7.54,7.51,7.54h19c4.15,0,7.51-3.36,7.51-7.51v-37.95c0-4.15-3.36-7.51-7.51-7.51h-26.44Z"/>
    </g>
  </g>
  <g>
    <g>
      <path class="cls-2" d="M-235.32-1713.43v149.27c0,9.69,7.88,17.54,17.6,17.54h46.88c9.72,0,17.6-7.85,17.6-17.54v-149.27c0-9.69-7.88-17.54-17.6-17.54h-46.88c-9.72,0-17.6,7.85-17.6,17.54Z"/>
      <path class="cls-2" d="M-235.32-1820.51v44.78c0,9.69,7.88,17.54,17.6,17.54h46.88c9.72,0,17.6-7.85,17.6-17.54v-44.78c0-9.69-7.88-17.54-17.6-17.54h-46.88c-9.72,0-17.6,7.85-17.6,17.54Z"/>
      <path class="cls-2" d="M-280.13-1837.99h-101.03c-7.78,0-14.69,4.94-17.18,12.29l-58.88,173.91c-.41,1.21-1.55,2.03-2.84,2.03h-8.09c-1.7,0-3.06-1.41-2.99-3.1l2.98-72.55.68-94.44c.07-10.03-8.07-18.19-18.13-18.19h-45.68c-10.01,0-18.13,8.09-18.13,18.06v255.25c0,9.97,8.12,18.06,18.13,18.06h85.4c7.54,0,14.29-4.65,16.96-11.67l66.33-174.63c.44-1.16,1.56-1.93,2.8-1.93h16.53c1.7,0,3.06,1.41,2.99,3.1l-2.99,72.55-.68,94.44c-.07,10.03,8.07,18.19,18.13,18.19h45.68c10.01,0,18.13-8.09,18.13-18.06v-255.25c0-9.97-8.12-18.06-18.13-18.06Z"/>
    </g>
    <g>
      <path class="cls-1" d="M-549.41-1458.2v-63.86c0-2.45,1.99-4.44,4.44-4.44h15.04c1.41,0,2.73.67,3.57,1.8l18.86,25.46,10.64,16.72h1.41l-.98-15.85v-23.68c0-2.45,1.99-4.44,4.44-4.44h11.53c2.45,0,4.44,1.99,4.44,4.44v63.86c0,2.45-1.99,4.44-4.44,4.44h-15.08c-1.38,0-2.68-.64-3.52-1.74l-20.16-26.28-9.23-14.33h-1.41l.87,13.9v24c0,2.45-1.99,4.44-4.44,4.44h-11.53c-2.45,0-4.44-1.99-4.44-4.44Z"/>
      <rect class="cls-1" x="-470.45" y="-1526.51" width="20.41" height="72.75" rx="-690.51" ry="-690.51"/>
      <path class="cls-1" d="M-224.5-1459.19v-61.88c0-2.42,1.96-4.38,4.38-4.38h14.5c1.39,0,2.69.66,3.52,1.77l18.3,24.69,10.33,16.24h1.37l-.95-15.39v-22.93c0-2.42,1.96-4.38,4.38-4.38h11.07c2.42,0,4.38,1.96,4.38,4.38v61.88c0,2.42-1.96,4.38-4.38,4.38h-14.55c-1.36,0-2.64-.63-3.47-1.71l-19.56-25.49-8.96-13.92h-1.37l.84,13.49v23.24c0,2.42-1.96,4.38-4.38,4.38h-11.07c-2.42,0-4.38-1.96-4.38-4.38Z"/>
      <path class="cls-1" d="M-396.31-1473.73c-1.36,0-2.71-.02-4.07-.03-3.56-.02-7.12-.05-10.68-.07-1.82-.01-3.75.14-5.5-.44-1.5-.5-2.82-1.51-3.79-2.74-2.88-3.65-3.02-8.67-3.02-13.11,0-4.18.35-6.15,1.21-8.14.31-.71-.2-1.51-.97-1.51h-1.39s-18.42,0-18.42,0h0c-.83,0-1.51.68-1.51,1.51v40.09c0,2.42,1.96,4.38,4.38,4.38h32.45c.72.03,1.45.04,2.18.04s1.51-.02,2.26-.04h17.18c1.37,0,2.67-.64,3.49-1.74l8.44-11.18c2.18-2.88.12-7.02-3.49-7.02h-18.73Z"/>
      <g>
        <path class="cls-1" d="M-351.07-1506.57h41.37c3.58,0,5.64-4.05,3.54-6.95l-8.11-11.18c-.82-1.13-2.14-1.81-3.54-1.81h-20.67s-.04,0-.06,0c-.04,0-.08,0-.12,0h-.5c-20.87.19-29.34,9.81-30.75,19.93h18.84Z"/>
        <path class="cls-1" d="M-323.13-1497.09c-18.88-3.33-26.2-2.67-26.2-2.68,0,0,0,0,0,0,0,0,0,0-.01,0h-18.67c-1.14,0-2.02,1.01-1.85,2.13,1.38,8.89,7.92,12.89,19.54,14.47l22.14,2.95c5.78.74,7.16,1.79,7.17,4.3,0,1.23-.98,2.23-2.21,2.23h-31.07s-4.7,0-4.7,0h-6.53c-3.62,0-5.68,4.14-3.49,7.03l8.59,11.18c.83,1.08,2.11,1.71,3.47,1.71h21.36c.3,0,.74,0,1.29.01,8.59,0,14.32.01,19.65-2.42,7.22-3.3,10.56-9.64,11.03-10.57,2.35-4.61,2.42-8.79,2.42-9.89,0-9.07-4.64-17.92-21.93-20.45Z"/>
      </g>
      <path class="cls-1" d="M-383.18-1524.8c-.83-1.08-2.11-1.7-3.47-1.7h-53.45c-2.42,0-4.38,1.96-4.38,4.38v12.3c0,1.8,1.46,3.25,3.25,3.25h63.16c3.63,0,5.68-4.17,3.47-7.05l-8.59-11.18Z"/>
      <path class="cls-1" d="M-249.57-1485.71h-17.39c-.95,0-1.6-.96-1.25-1.84l7.49-18.9c.26-.65.89-1.08,1.6-1.08h7.81c.97,0,1.75.78,1.75,1.75v12.21c0,.59.48,1.07,1.07,1.07h14.35c2.42,0,4.38-1.96,4.38-4.38v-24.19c0-2.42-1.96-4.38-4.38-4.38h-36.65c-1.75,0-3.33,1.04-4.02,2.64l-26.69,61.88c-1.25,2.89.87,6.11,4.02,6.11h15.59l5.48-13.07h26.85l-.04,8.67c-.01,2.43,1.95,4.4,4.38,4.4h11.08c2.42,0,4.38-1.96,4.38-4.38v-22.14c0-2.42-1.96-4.38-4.38-4.38h-15.42Z"/>
    </g>
  </g>
  <g>
    <g>
      <path class="cls-2" d="M-1148.47-1726.93v168.44c0,10.93,8.89,19.79,19.87,19.79h52.9c10.97,0,19.87-8.86,19.87-19.79v-168.44c0-10.93-8.89-19.79-19.87-19.79h-52.9c-10.97,0-19.87,8.86-19.87,19.79Z"/>
      <path class="cls-2" d="M-1148.47-1847.76v50.53c0,10.93,8.89,19.79,19.87,19.79h52.9c10.97,0,19.87-8.86,19.87-19.79v-50.53c0-10.93-8.89-19.79-19.87-19.79h-52.9c-10.97,0-19.87,8.86-19.87,19.79Z"/>
      <path class="cls-2" d="M-1199.03-1867.49h-114.01c-8.78,0-16.58,5.58-19.39,13.87l-66.44,196.25c-.46,1.37-1.75,2.29-3.2,2.29h-9.13c-1.92,0-3.45-1.59-3.38-3.5l3.37-81.87.77-106.57c.08-11.31-9.1-20.53-20.46-20.53h-51.55c-11.3,0-20.46,9.12-20.46,20.38v288.03c0,11.26,9.16,20.38,20.46,20.38h96.37c8.51,0,16.13-5.24,19.14-13.17l74.85-197.06c.5-1.31,1.76-2.17,3.16-2.17h18.65c1.92,0,3.45,1.59,3.38,3.5l-3.37,81.87-.77,106.57c-.08,11.31,9.1,20.53,20.46,20.53h51.55c11.3,0,20.46-9.12,20.46-20.38v-288.03c0-11.26-9.16-20.38-20.46-20.38Z"/>
    </g>
    <g>
      <path class="cls-1" d="M-1502.9-1438.92v-72.07c0-2.77,2.24-5.01,5.01-5.01h16.97c1.59,0,3.08.75,4.03,2.03l21.29,28.73,12.01,18.87h1.59l-1.1-17.89v-26.72c0-2.77,2.24-5.01,5.01-5.01h13.01c2.77,0,5.01,2.24,5.01,5.01v72.07c0,2.77-2.24,5.01-5.01,5.01h-17.02c-1.56,0-3.03-.72-3.98-1.96l-22.75-29.65-10.41-16.17h-1.59l.98,15.68v27.09c0,2.77-2.24,5.01-5.01,5.01h-13.01c-2.77,0-5.01-2.24-5.01-5.01Z"/>
      <rect class="cls-1" x="-1413.8" y="-1515.99" width="23.03" height="82.09" rx="-683.86" ry="-683.86"/>
      <path class="cls-1" d="M-1136.26-1440.03v-69.83c0-2.73,2.21-4.94,4.94-4.94h16.37c1.56,0,3.04.74,3.97,2l20.65,27.86,11.66,18.32h1.55l-1.07-17.37v-25.87c0-2.73,2.21-4.94,4.94-4.94h12.49c2.73,0,4.94,2.21,4.94,4.94v69.83c0,2.73-2.21,4.94-4.94,4.94h-16.42c-1.54,0-2.98-.71-3.92-1.93l-22.07-28.76-10.11-15.7h-1.55l.95,15.23v26.23c0,2.73-2.21,4.94-4.94,4.94h-12.49c-2.73,0-4.94-2.21-4.94-4.94Z"/>
      <path class="cls-1" d="M-1330.14-1456.44c-1.53-.01-3.06-.02-4.59-.03-4.02-.03-8.03-.06-12.05-.08-2.05-.01-4.23.15-6.21-.5-1.7-.56-3.18-1.7-4.28-3.09-3.25-4.12-3.41-9.79-3.41-14.8,0-4.71.39-6.94,1.37-9.18.35-.8-.22-1.7-1.1-1.7h-1.57s-20.79,0-20.79,0h0c-.94,0-1.7.76-1.7,1.7v45.24c0,2.73,2.21,4.94,4.94,4.94h36.62c.81.03,1.63.04,2.46.04s1.71-.02,2.55-.04h19.39c1.55,0,3.01-.73,3.94-1.96l9.52-12.61c2.46-3.25.14-7.92-3.94-7.92h-21.14Z"/>
      <g>
        <path class="cls-1" d="M-1279.09-1493.5h46.68c4.04,0,6.37-4.58,4-7.84l-9.15-12.61c-.93-1.28-2.42-2.04-4-2.04h-23.33s-.05,0-.07,0c-.05,0-.09,0-.13,0h-.56c-23.55.21-33.11,11.07-34.7,22.49h21.27Z"/>
        <path class="cls-1" d="M-1247.56-1482.8c-21.31-3.76-29.56-3.02-29.57-3.02,0,0,0,0,0,0,0,0,0,0-.01,0h-21.07c-1.28,0-2.28,1.14-2.09,2.41,1.56,10.03,8.94,14.54,22.05,16.33l24.98,3.33c6.52.83,8.08,2.02,8.09,4.85,0,1.38-1.11,2.52-2.49,2.52h-35.06s-5.3,0-5.3,0h-7.37c-4.09,0-6.4,4.68-3.93,7.93l9.7,12.62c.93,1.22,2.38,1.93,3.92,1.93h24.1c.33,0,.84.01,1.46.01,9.7,0,16.16.02,22.17-2.73,8.14-3.72,11.91-10.88,12.45-11.93,2.65-5.21,2.73-9.92,2.73-11.16,0-10.23-5.23-20.23-24.75-23.08Z"/>
      </g>
      <path class="cls-1" d="M-1315.32-1514.07c-.94-1.21-2.38-1.92-3.91-1.92h-60.32c-2.73,0-4.94,2.21-4.94,4.94v13.88c0,2.03,1.64,3.67,3.67,3.67h71.27c4.1,0,6.41-4.7,3.92-7.95l-9.69-12.62Z"/>
      <path class="cls-1" d="M-1164.55-1469.95h-19.62c-1.07,0-1.81-1.08-1.41-2.08l8.45-21.33c.29-.74,1.01-1.22,1.8-1.22h8.81c1.09,0,1.97.88,1.97,1.97v13.77c0,.67.54,1.2,1.2,1.2h16.19c2.73,0,4.94-2.21,4.94-4.94v-27.3c0-2.73-2.21-4.94-4.94-4.94h-41.36c-1.97,0-3.75,1.17-4.54,2.98l-30.12,69.83c-1.41,3.26.98,6.9,4.54,6.9h17.59l6.19-14.75h30.3l-.05,9.79c-.01,2.74,2.2,4.96,4.94,4.96h12.51c2.73,0,4.94-2.21,4.94-4.94v-24.98c0-2.73-2.21-4.94-4.94-4.94h-17.4Z"/>
    </g>
  </g>
  <g>
    <g>
      <path class="cls-2" d="M265.12-1713.43v149.27c0,9.69,7.88,17.54,17.6,17.54h46.88c9.72,0,17.6-7.85,17.6-17.54v-149.27c0-9.69-7.88-17.54-17.6-17.54h-46.88c-9.72,0-17.6,7.85-17.6,17.54Z"/>
      <path class="cls-2" d="M265.12-1820.51v44.78c0,9.69,7.88,17.54,17.6,17.54h46.88c9.72,0,17.6-7.85,17.6-17.54v-44.78c0-9.69-7.88-17.54-17.6-17.54h-46.88c-9.72,0-17.6,7.85-17.6,17.54Z"/>
      <path class="cls-2" d="M220.31-1837.99h-101.03c-7.78,0-14.69,4.94-17.18,12.29l-58.88,173.91c-.41,1.21-1.55,2.03-2.84,2.03h-8.09c-1.7,0-3.06-1.41-2.99-3.1l2.98-72.55.68-94.44c.07-10.03-8.07-18.19-18.13-18.19H-30.84c-10.01,0-18.13,8.09-18.13,18.06v255.25c0,9.97,8.12,18.06,18.13,18.06H54.57c7.54,0,14.29-4.65,16.96-11.67l66.33-174.63c.44-1.16,1.56-1.93,2.8-1.93h16.53c1.7,0,3.06,1.41,2.99,3.1l-2.99,72.55-.68,94.44c-.07,10.03,8.07,18.19,18.13,18.19h45.68c10.01,0,18.13-8.09,18.13-18.06v-255.25c0-9.97-8.12-18.06-18.13-18.06Z"/>
    </g>
    <g>
      <path class="cls-4" d="M-48.97-1458.2v-63.86c0-2.45,1.99-4.44,4.44-4.44h15.04c1.41,0,2.73.67,3.57,1.8l18.86,25.46,10.64,16.72h1.41l-.98-15.85v-23.68c0-2.45,1.99-4.44,4.44-4.44h11.53c2.45,0,4.44,1.99,4.44,4.44v63.86c0,2.45-1.99,4.44-4.44,4.44H4.9c-1.38,0-2.68-.64-3.52-1.74l-20.16-26.28-9.23-14.33h-1.41l.87,13.9v24c0,2.45-1.99,4.44-4.44,4.44h-11.53c-2.45,0-4.44-1.99-4.44-4.44Z"/>
      <rect class="cls-4" x="29.99" y="-1526.51" width="20.41" height="72.75" rx="-690.51" ry="-690.51"/>
      <path class="cls-4" d="M275.94-1459.19v-61.88c0-2.42,1.96-4.38,4.38-4.38h14.5c1.39,0,2.69.66,3.52,1.77l18.3,24.69,10.33,16.24h1.37l-.95-15.39v-22.93c0-2.42,1.96-4.38,4.38-4.38h11.07c2.42,0,4.38,1.96,4.38,4.38v61.88c0,2.42-1.96,4.38-4.38,4.38h-14.55c-1.36,0-2.64-.63-3.47-1.71l-19.56-25.49-8.96-13.92h-1.37l.84,13.49v23.24c0,2.42-1.96,4.38-4.38,4.38h-11.07c-2.42,0-4.38-1.96-4.38-4.38Z"/>
      <path class="cls-4" d="M104.12-1473.73c-1.36,0-2.71-.02-4.07-.03-3.56-.02-7.12-.05-10.68-.07-1.82-.01-3.75.14-5.5-.44-1.5-.5-2.82-1.51-3.79-2.74-2.88-3.65-3.02-8.67-3.02-13.11,0-4.18.35-6.15,1.21-8.14.31-.71-.2-1.51-.97-1.51h-1.39s-18.42,0-18.42,0h0c-.83,0-1.51.68-1.51,1.51v40.09c0,2.42,1.96,4.38,4.38,4.38h32.45c.72.03,1.45.04,2.18.04s1.51-.02,2.26-.04h17.18c1.37,0,2.67-.64,3.49-1.74l8.44-11.18c2.18-2.88.12-7.02-3.49-7.02h-18.73Z"/>
      <g>
        <path class="cls-4" d="M149.36-1506.57h41.37c3.58,0,5.64-4.05,3.54-6.95l-8.11-11.18c-.82-1.13-2.14-1.81-3.54-1.81h-20.67s-.04,0-.06,0c-.04,0-.08,0-.12,0h-.5c-20.87.19-29.34,9.81-30.75,19.93h18.84Z"/>
        <path class="cls-4" d="M177.31-1497.09c-18.88-3.33-26.2-2.67-26.2-2.68,0,0,0,0,0,0,0,0,0,0-.01,0h-18.67c-1.14,0-2.02,1.01-1.85,2.13,1.38,8.89,7.92,12.89,19.54,14.47l22.14,2.95c5.78.74,7.16,1.79,7.17,4.3,0,1.23-.98,2.23-2.21,2.23h-31.07s-4.7,0-4.7,0h-6.53c-3.62,0-5.68,4.14-3.49,7.03l8.59,11.18c.83,1.08,2.11,1.71,3.47,1.71h21.36c.3,0,.74,0,1.29.01,8.59,0,14.32.01,19.65-2.42,7.22-3.3,10.56-9.64,11.03-10.57,2.35-4.61,2.42-8.79,2.42-9.89,0-9.07-4.64-17.92-21.93-20.45Z"/>
      </g>
      <path class="cls-4" d="M117.26-1524.8c-.83-1.08-2.11-1.7-3.47-1.7h-53.45c-2.42,0-4.38,1.96-4.38,4.38v12.3c0,1.8,1.46,3.25,3.25,3.25h63.16c3.63,0,5.68-4.17,3.47-7.05l-8.59-11.18Z"/>
      <path class="cls-4" d="M250.87-1485.71h-17.39c-.95,0-1.6-.96-1.25-1.84l7.49-18.9c.26-.65.89-1.08,1.6-1.08h7.81c.97,0,1.75.78,1.75,1.75v12.21c0,.59.48,1.07,1.07,1.07h14.35c2.42,0,4.38-1.96,4.38-4.38v-24.19c0-2.42-1.96-4.38-4.38-4.38h-36.65c-1.75,0-3.33,1.04-4.02,2.64l-26.69,61.88c-1.25,2.89.87,6.11,4.02,6.11h15.59l5.48-13.07h26.85l-.04,8.67c-.01,2.43,1.95,4.4,4.38,4.4h11.08c2.42,0,4.38-1.96,4.38-4.38v-22.14c0-2.42-1.96-4.38-4.38-4.38h-15.42Z"/>
    </g>
  </g>
</svg>