<?xml version="1.0" encoding="UTF-8"?>
<svg id="Layer_1" xmlns="http://www.w3.org/2000/svg" version="1.1" viewBox="0 0 28 28">
  <!-- Generator: Adobe Illustrator 29.8.1, SVG Export Plug-In . SVG Version: 2.1.1 Build 2)  -->
  <defs>
    <style>
      .st0 {
        fill: #d7263d;
      }
    </style>
  </defs>
  <path class="st0" d="M26.23,0h-9.84c-.76,0-1.43.48-1.67,1.18l-5.74,16.71c-.04.12-.15.19-.28.19h-.79c-.17,0-.3-.14-.29-.3l.29-6.97.07-9.07c0-.96-.79-1.75-1.77-1.75H1.77C.79,0,0,.78,0,1.74v24.52c0,.96.79,1.74,1.77,1.74h8.32c.73,0,1.39-.45,1.65-1.12l6.46-16.78c.04-.11.15-.19.27-.19h1.61c.17,0,.3.14.29.3l-.29,6.97-.07,9.07c0,.96.79,1.75,1.77,1.75h4.45c.98,0,1.77-.78,1.77-1.74V1.74C28,.78,27.21,0,26.23,0Z"/>
</svg>